<svg width="380" height="330" viewBox="0 0 380 330" fill="none" xmlns="http://www.w3.org/2000/svg">
<path d="M140 154C140 149.582 143.582 146 148 146H232C236.418 146 240 149.582 240 154V176C240 180.418 236.418 184 232 184H148C143.582 184 140 180.418 140 176V154Z" fill="#E9E9E9"/>
<path d="M212 160C214.761 160 217 162.239 217 165C217 167.761 214.761 170 212 170H167C164.239 170 162 167.761 162 165C162 162.239 164.239 160 167 160H212Z" fill="#999999"/>
<rect x="40" y="4" width="40.9375" height="30" rx="3" fill="white"/>
<rect x="40.5" y="4.5" width="39.9375" height="29" rx="2.5" stroke="black" stroke-opacity="0.2"/>
<path d="M49.2656 24.375C48.8203 24.375 48.4375 24.3177 48.1172 24.2031C47.7969 24.0911 47.5299 23.9427 47.3164 23.7578C47.1055 23.5755 46.9375 23.3802 46.8125 23.1719L47.5469 22.6563C47.6302 22.7656 47.7357 22.8906 47.8633 23.0312C47.9909 23.1745 48.1654 23.2982 48.3867 23.4023C48.6107 23.5091 48.9036 23.5625 49.2656 23.5625C49.75 23.5625 50.1497 23.4453 50.4648 23.2109C50.7799 22.9766 50.9375 22.6094 50.9375 22.1094V20.8906H50.8594C50.7917 21 50.6953 21.1354 50.5703 21.2969C50.4479 21.4557 50.2708 21.5977 50.0391 21.7227C49.8099 21.8451 49.5 21.9062 49.1094 21.9062C48.625 21.9062 48.1901 21.7917 47.8047 21.5625C47.4219 21.3333 47.1185 21 46.8945 20.5625C46.6732 20.125 46.5625 19.5937 46.5625 18.9687C46.5625 18.3542 46.6706 17.819 46.8867 17.3633C47.1029 16.9049 47.4036 16.5508 47.7891 16.3008C48.1745 16.0482 48.6198 15.9219 49.125 15.9219C49.5156 15.9219 49.8255 15.987 50.0547 16.1172C50.2865 16.2448 50.4635 16.3906 50.5859 16.5547C50.7109 16.7161 50.8073 16.849 50.875 16.9531H50.9688V16H51.8594V22.1719C51.8594 22.6875 51.7422 23.1068 51.5078 23.4297C51.276 23.7552 50.9635 23.9935 50.5703 24.1445C50.1797 24.2982 49.7448 24.375 49.2656 24.375ZM49.2344 21.0781C49.6042 21.0781 49.9167 20.9935 50.1719 20.8242C50.4271 20.6549 50.6211 20.4115 50.7539 20.0938C50.8867 19.776 50.9531 19.3958 50.9531 18.9531C50.9531 18.5208 50.888 18.1393 50.7578 17.8086C50.6276 17.4779 50.4349 17.2187 50.1797 17.0312C49.9245 16.8437 49.6094 16.75 49.2344 16.75C48.8438 16.75 48.5182 16.849 48.2578 17.0469C48 17.2448 47.806 17.5104 47.6758 17.8438C47.5482 18.1771 47.4844 18.5469 47.4844 18.9531C47.4844 19.3698 47.5495 19.7383 47.6797 20.0586C47.8125 20.3763 48.0078 20.6263 48.2656 20.8086C48.526 20.9883 48.849 21.0781 49.2344 21.0781ZM57.3281 19.5469V16H58.25V22H57.3281V20.9844H57.2656C57.125 21.2891 56.9063 21.5482 56.6094 21.7617C56.3125 21.9727 55.9375 22.0781 55.4844 22.0781C55.1094 22.0781 54.776 21.9961 54.4844 21.832C54.1927 21.6654 53.9635 21.4154 53.7969 21.082C53.6302 20.7461 53.5469 20.3229 53.5469 19.8125V16H54.4688V19.75C54.4688 20.1875 54.5911 20.5365 54.8359 20.7969C55.0833 21.0573 55.3984 21.1875 55.7813 21.1875C56.0104 21.1875 56.2435 21.1289 56.4805 21.0117C56.7201 20.8945 56.9206 20.7148 57.082 20.4727C57.2461 20.2305 57.3281 19.9219 57.3281 19.5469ZM59.9385 22V16H60.8604V22H59.9385ZM60.4072 15C60.2275 15 60.0726 14.9388 59.9424 14.8164C59.8148 14.694 59.751 14.5469 59.751 14.375C59.751 14.2031 59.8148 14.056 59.9424 13.9336C60.0726 13.8112 60.2275 13.75 60.4072 13.75C60.5869 13.75 60.7406 13.8112 60.8682 13.9336C60.9984 14.056 61.0635 14.2031 61.0635 14.375C61.0635 14.5469 60.9984 14.694 60.8682 14.8164C60.7406 14.9388 60.5869 15 60.4072 15ZM64.8145 22.125C64.3145 22.125 63.873 21.9987 63.4902 21.7461C63.1074 21.4909 62.8079 21.1315 62.5918 20.668C62.3757 20.2018 62.2676 19.651 62.2676 19.0156C62.2676 18.3854 62.3757 17.8385 62.5918 17.375C62.8079 16.9115 63.1087 16.5534 63.4941 16.3008C63.8796 16.0482 64.3249 15.9219 64.8301 15.9219C65.2207 15.9219 65.5293 15.987 65.7559 16.1172C65.985 16.2448 66.1595 16.3906 66.2793 16.5547C66.4017 16.7161 66.4967 16.849 66.5645 16.9531H66.6426V14H67.5645V22H66.6738V21.0781H66.5645C66.4967 21.1875 66.4004 21.3255 66.2754 21.4922C66.1504 21.6562 65.972 21.8034 65.7402 21.9336C65.5085 22.0612 65.1999 22.125 64.8145 22.125ZM64.9395 21.2969C65.3092 21.2969 65.6217 21.2005 65.877 21.0078C66.1322 20.8125 66.3262 20.543 66.459 20.1992C66.5918 19.8529 66.6582 19.4531 66.6582 19C66.6582 18.5521 66.5931 18.1602 66.4629 17.8242C66.3327 17.4857 66.14 17.2227 65.8848 17.0352C65.6296 16.8451 65.3145 16.75 64.9395 16.75C64.5488 16.75 64.2233 16.8503 63.9629 17.0508C63.7051 17.2487 63.5111 17.5182 63.3809 17.8594C63.2533 18.1979 63.1895 18.5781 63.1895 19C63.1895 19.4271 63.2546 19.8151 63.3848 20.1641C63.5176 20.5104 63.7129 20.7865 63.9707 20.9922C64.2311 21.1953 64.554 21.2969 64.9395 21.2969ZM71.8965 22.125C71.3184 22.125 70.8197 21.9974 70.4004 21.7422C69.9837 21.4844 69.6621 21.125 69.4355 20.6641C69.2116 20.2005 69.0996 19.6615 69.0996 19.0469C69.0996 18.4323 69.2116 17.8906 69.4355 17.4219C69.6621 16.9505 69.9772 16.5833 70.3809 16.3203C70.7871 16.0547 71.2611 15.9219 71.8027 15.9219C72.1152 15.9219 72.4238 15.974 72.7285 16.0781C73.0332 16.1823 73.3105 16.3516 73.5605 16.5859C73.8105 16.8177 74.0098 17.125 74.1582 17.5078C74.3066 17.8906 74.3809 18.362 74.3809 18.9219V19.3125H69.7559V18.5156H73.4434C73.4434 18.1771 73.3757 17.875 73.2402 17.6094C73.1074 17.3437 72.9173 17.1341 72.6699 16.9805C72.4251 16.8268 72.1361 16.75 71.8027 16.75C71.4355 16.75 71.1178 16.8411 70.8496 17.0234C70.584 17.2031 70.3796 17.4375 70.2363 17.7266C70.0931 18.0156 70.0215 18.3255 70.0215 18.6562V19.1875C70.0215 19.6406 70.0996 20.0247 70.2559 20.3398C70.4147 20.6523 70.6348 20.8906 70.916 21.0547C71.1973 21.2161 71.5241 21.2969 71.8965 21.2969C72.1387 21.2969 72.3574 21.263 72.5527 21.1953C72.7507 21.125 72.9212 21.0208 73.0645 20.8828C73.2077 20.7422 73.3184 20.5677 73.3965 20.3594L74.2871 20.6094C74.1934 20.9115 74.0358 21.1771 73.8145 21.4062C73.5931 21.6328 73.3197 21.8099 72.9941 21.9375C72.6686 22.0625 72.3027 22.125 71.8965 22.125Z" fill="black"/>
</svg>
